<svg width="1000" height="103" viewBox="0 0 1000 103" fill="none" xmlns="http://www.w3.org/2000/svg">
<path d="M791.042 79.6925L791.371 79.8097C803.204 84.0525 814.378 88.0574 833.282 88.0574H840.283V102.06H833.282C811.924 102.06 799.071 97.4576 786.642 93.0066L786.624 93.0004C773.924 88.4494 761.923 84.1506 740.065 84.1506H733.063V74.9087C733.066 70.492 734.001 66.1256 735.809 62.0956C737.616 58.0657 740.255 54.4631 743.552 51.5239L768.477 29.3154C769.498 28.2554 770.244 26.9613 770.649 25.5462C771.054 24.1311 771.107 22.6382 770.801 21.1983C770.495 19.7584 769.841 18.4154 768.896 17.2869C767.951 16.1583 766.744 15.2787 765.38 14.725C764.016 14.1713 762.537 13.9605 761.073 14.1109C759.609 14.2613 758.204 14.7685 756.981 15.5879C755.758 16.4073 754.755 17.514 754.059 18.8111C753.363 20.1082 752.996 21.5561 752.99 23.0281V30.0295L738.987 29.9455V22.9441C738.997 19.1593 739.941 15.4355 741.735 12.1027C743.528 8.77001 746.117 5.9313 749.27 3.83823C752.424 1.74516 756.045 0.462385 759.812 0.103607C763.58 -0.255171 767.378 0.321132 770.87 1.78143C774.362 3.24173 777.439 5.54092 779.83 8.4752C782.22 11.4095 783.85 14.8882 784.575 18.6031C785.299 22.3179 785.096 26.1541 783.983 29.7716C782.87 33.3891 780.882 36.6761 778.195 39.3414L777.901 39.6215L752.891 61.914C750.391 64.1541 748.595 67.0733 747.724 70.3157C767.202 71.2175 779.326 75.5276 791.042 79.6925Z" fill="white"/>
<path fill-rule="evenodd" clip-rule="evenodd" d="M827.793 0.133415C820.592 0.133415 813.553 2.26867 807.566 6.26917C801.579 10.2697 796.912 15.9557 794.157 22.6083C791.401 29.2609 790.68 36.5812 792.085 43.6436C793.49 50.7059 796.957 57.1931 802.049 62.2848C807.141 67.3764 813.628 70.8439 820.69 72.2487C827.753 73.6535 835.073 72.9325 841.725 70.1769C848.378 67.4213 854.064 62.7549 858.065 56.7677C862.065 50.7805 864.2 43.7416 864.2 36.5408C864.2 26.885 860.365 17.6246 853.537 10.7969C846.709 3.96919 837.449 0.133415 827.793 0.133415ZM827.793 58.8194C823.362 58.8194 819.03 57.5054 815.346 55.0435C811.661 52.5817 808.79 49.0826 807.094 44.9887C805.398 40.8948 804.954 36.39 805.819 32.0439C806.683 27.6978 808.817 23.7057 811.951 20.5724C815.084 17.4391 819.076 15.3052 823.422 14.4407C827.768 13.5763 832.273 14.0199 836.367 15.7157C840.461 17.4114 843.96 20.2831 846.422 23.9675C848.883 27.6519 850.197 31.9836 850.197 36.4148C850.197 42.3569 847.837 48.0556 843.635 52.2572C839.434 56.4589 833.735 58.8194 827.793 58.8194Z" fill="white"/>
<path d="M545.999 12.946L560.604 56.6349L574.957 12.946H589.702L566.416 83.8005H554.905L531.226 12.946H545.999Z" fill="white"/>
<path fill-rule="evenodd" clip-rule="evenodd" d="M24.1829 13.2821H0V83.5624H24.1829C28.2629 83.5872 32.2618 82.4232 35.691 80.2125C39.1203 78.0018 41.8315 74.8403 43.4934 71.114C45.1552 67.3878 45.6959 63.2581 45.0493 59.2297C44.4026 55.2012 42.5967 51.4482 39.8521 48.4293C42.6013 45.4108 44.4111 41.6566 45.0603 37.6257C45.7095 33.5949 45.1699 29.4623 43.5074 25.7333C41.845 22.0043 39.1318 18.8407 35.6998 16.6293C32.2677 14.418 28.2656 13.2548 24.1829 13.2821ZM24.1829 69.5596H14.0029V55.4307H24.1829C26.0565 55.4307 27.8534 56.175 29.1782 57.4998C30.5031 58.8247 31.2474 60.6215 31.2474 62.4951C31.2474 64.3688 30.5031 66.1656 29.1782 67.4905C27.8534 68.8153 26.0565 69.5596 24.1829 69.5596ZM24.1829 41.4278H14.0029V27.285H24.1829C26.0584 27.285 27.857 28.03 29.1832 29.3561C30.5093 30.6823 31.2544 32.4809 31.2544 34.3564C31.2544 36.2319 30.5093 38.0305 29.1832 39.3567C27.857 40.6828 26.0584 41.4278 24.1829 41.4278Z" fill="white"/>
<path d="M63.6849 83.5624H105.792V69.5596H77.6878V55.4167H99.8963V41.4138H77.6878V27.285H105.792V13.2821H63.6849V83.5624Z" fill="white"/>
<path fill-rule="evenodd" clip-rule="evenodd" d="M452.36 19.508C456.309 23.4435 458.54 28.7816 458.566 34.3564C458.557 38.8499 457.115 43.2235 454.451 46.842C451.787 50.4605 448.039 53.1355 443.751 54.4785L461.114 84.2486H444.899L428.095 55.4307H427.325V83.5624H413.322V13.3521H437.491C443.066 13.3595 448.412 15.5725 452.36 19.508ZM427.325 41.3578H437.491V41.4278C439.367 41.4278 441.165 40.6828 442.492 39.3567C443.818 38.0305 444.563 36.2319 444.563 34.3564C444.563 32.4809 443.818 30.6823 442.492 29.3561C441.165 28.03 439.367 27.285 437.491 27.285H427.325V41.3578Z" fill="white"/>
<path d="M156.832 46.0488L141.429 37.185C140.419 36.6004 139.63 35.6995 139.184 34.6215C138.738 33.5435 138.659 32.3485 138.961 31.2214C139.262 30.0943 139.926 29.0979 140.851 28.3863C141.775 27.6748 142.909 27.2877 144.075 27.285H165.696V13.2821H144.145C139.893 13.2827 135.76 14.687 132.387 17.2769C129.015 19.8668 126.591 23.4976 125.493 27.6058C124.395 31.7139 124.684 36.0696 126.314 39.9969C127.945 43.9241 130.827 47.2033 134.511 49.3255L149.915 58.1753C151.073 58.8484 151.979 59.8842 152.49 61.1228C153.002 62.3614 153.092 63.734 152.747 65.0288C152.401 66.3237 151.639 67.4688 150.578 68.2877C149.517 69.1065 148.216 69.5534 146.876 69.5596H125.228V83.5624H146.848C151.272 83.5553 155.569 82.0886 159.074 79.3899C162.579 76.6911 165.096 72.9112 166.234 68.6364C167.371 64.3616 167.067 59.8308 165.367 55.7468C163.667 51.6628 160.667 48.2539 156.832 46.0488Z" fill="white"/>
<path d="M646.624 83.5624H604.517V13.2821H646.624V27.285H618.52V41.4138H640.729V55.4167H618.52V69.5596H646.624V83.5624Z" fill="white"/>
<path d="M678.718 13.2821H664.716V83.5624H704.848V69.5596H678.718V13.2821Z" fill="white"/>
<path d="M198.028 27.285H180.945V13.2821H229.101V27.285H212.031V83.5624H198.028V27.285Z" fill="white"/>
<path d="M349.133 27.285H366.203V83.5624H380.206V27.285H397.289V13.2821H349.133V27.285Z" fill="white"/>
<path d="M256.644 13.2821H270.647V55.8228H256.644V13.2821Z" fill="white"/>
<path d="M298.261 38.9633L310.765 53.4143L312.964 55.8228H323.172V13.2821H309.169V30.1555L296.665 15.7046L294.452 13.2821H284.258V55.8228H298.261V38.9633Z" fill="white"/>
<path d="M256.644 69.5596H323.564V83.5624H256.644V69.5596Z" fill="white"/>
<path fill-rule="evenodd" clip-rule="evenodd" d="M493.769 13.2821L470.272 84.2486H485.017L488.336 74.2225H510.978L514.353 84.2486H529.126L505.237 13.2821H493.769ZM492.97 60.2197L499.566 40.3216L506.259 60.2197H492.97Z" fill="white"/>
<path fill-rule="evenodd" clip-rule="evenodd" d="M963.593 0.133415C956.392 0.133415 949.353 2.26867 943.366 6.26917C937.378 10.2697 932.712 15.9557 929.956 22.6083C927.201 29.2609 926.48 36.5812 927.885 43.6436C929.289 50.7059 932.757 57.1931 937.849 62.2848C942.94 67.3764 949.427 70.8439 956.49 72.2487C963.552 73.6535 970.872 72.9325 977.525 70.1769C984.178 67.4213 989.864 62.7549 993.864 56.7677C997.865 50.7805 1000 43.7416 1000 36.5408C1000 26.885 996.164 17.6246 989.336 10.7969C982.509 3.96919 973.248 0.133415 963.593 0.133415ZM963.593 58.8194C959.161 58.8194 954.83 57.5054 951.145 55.0435C947.461 52.5817 944.589 49.0826 942.893 44.9887C941.198 40.8948 940.754 36.39 941.618 32.0439C942.483 27.6978 944.617 23.7057 947.75 20.5724C950.883 17.4391 954.875 15.3052 959.222 14.4407C963.568 13.5763 968.072 14.0199 972.166 15.7157C976.26 17.4114 979.759 20.2831 982.221 23.9675C984.683 27.6519 985.997 31.9836 985.997 36.4148C985.997 42.3569 983.637 48.0556 979.435 52.2572C975.233 56.4589 969.535 58.8194 963.593 58.8194Z" fill="white"/>
<path d="M926.814 79.6826L927.171 79.8097C939.004 84.0525 950.178 88.0574 969.124 88.0574H976.125V102.06H969.124C947.751 102.06 934.899 97.4576 922.47 93.0066L922.452 93.0004C909.752 88.4494 897.751 84.1506 875.907 84.1506H868.905V74.9087C868.905 70.4929 869.838 66.1269 871.643 62.0969C873.448 58.0669 876.085 54.4638 879.379 51.5239L904.206 29.3154C905.228 28.2554 905.974 26.9613 906.379 25.5462C906.784 24.1311 906.836 22.6382 906.531 21.1983C906.225 19.7584 905.571 18.4154 904.626 17.2869C903.681 16.1583 902.474 15.2787 901.11 14.725C899.746 14.1714 898.267 13.9605 896.803 14.1109C895.339 14.2613 893.934 14.7685 892.711 15.5879C891.488 16.4073 890.485 17.514 889.789 18.8111C889.093 20.1082 888.726 21.5561 888.719 23.0281V30.0295L874.716 29.9455V22.9441C874.741 18.6296 875.978 14.4088 878.286 10.7638C880.595 7.1187 883.882 4.19623 887.772 2.33003C891.662 0.463838 895.998 -0.270864 900.286 0.209812C904.574 0.690489 908.64 2.36717 912.02 5.04842C914.563 7.06261 916.652 9.59228 918.148 12.4712C919.644 15.35 920.514 18.5129 920.7 21.752C920.887 24.991 920.386 28.2329 919.23 31.2644C918.074 34.296 916.29 37.0486 913.994 39.3414L913.7 39.6215L888.705 61.914C886.196 64.1497 884.395 67.07 883.524 70.3157C903 71.2168 915.107 75.5208 926.814 79.6826Z" fill="white"/>
</svg>
